<svg width="500" height="500" viewBox="0 0 500 500" fill="none" xmlns="http://www.w3.org/2000/svg">
<rect width="500" height="500" fill="#024284"/>
<path fill-rule="evenodd" clip-rule="evenodd" d="M193.319 208.097L184.32 210.199L175.475 242.932L180.589 244.314L177.621 255.299L171.813 249.065L164.349 251.713L167.316 240.732L172.046 242.01L180.394 211.115L164.124 214.907L165.914 208.282C165.914 208.282 146.826 190.482 124.699 184.504C102.568 178.524 77.701 184.812 77.701 184.812L76.676 188.606L54.1011 169.962L132.785 149.373L176.873 192.146C177.105 191.84 177.545 191.58 178.279 191.405C192.439 188.935 187.195 199.558 187.195 199.558L186.637 201.622L193.319 208.097ZM183.719 198.791L184.278 196.723C184.987 194.1 181.976 194.778 180.194 195.371L183.719 198.791ZM177.17 204.243C176.675 206.077 177.768 207.966 179.601 208.461C181.44 208.958 183.326 207.874 183.822 206.04C184.317 204.206 183.234 202.315 181.396 201.819C179.562 201.323 177.666 202.409 177.17 204.243ZM75.8034 209.893L81.7044 188.053C81.7044 188.053 104.01 182.405 123.844 187.773C143.688 193.135 160.813 209.101 160.813 209.101L154.83 231.245C154.83 231.245 136.24 216.861 117.672 211.844C99.1032 206.827 75.8034 209.893 75.8034 209.893ZM155 263.5C155 235.104 131.896 212 103.5 212C75.1042 212 52 235.104 52 263.5C52 291.896 75.1042 315 103.5 315H151.781C153.558 315 155 313.558 155 311.781V263.5ZM104.53 286.16C117.613 286.16 128.22 275.554 128.22 262.47C128.22 249.386 117.613 238.78 104.53 238.78C91.4462 238.78 80.8398 249.386 80.8398 262.47C80.8398 275.554 91.4462 286.16 104.53 286.16ZM187.184 215V315H213.984V262.8C213.984 256.267 215.584 250.667 218.784 246C221.984 241.333 226.917 239 233.584 239C237.584 239 240.85 239.667 243.384 241C245.917 242.2 247.717 244.067 248.784 246.6C249.984 249.133 250.784 251.6 251.184 254C251.584 256.4 251.784 259.4 251.784 263V315H278.584V261.2C278.584 255.067 280.25 249.867 283.584 245.6C286.917 241.2 291.784 239 298.184 239C302.184 239 305.45 239.667 307.984 241C310.517 242.2 312.317 244.067 313.384 246.6C314.584 249.133 315.384 251.6 315.784 254C316.184 256.4 316.384 259.4 316.384 263V315H343.184V259.8C343.184 228.6 330.25 213 304.384 213C298.784 213 292.917 214.733 286.784 218.2C280.65 221.533 276.05 225.867 272.984 231.2C267.384 219.067 256.984 213 241.784 213C236.184 213 230.717 214.6 225.384 217.8C220.184 221 216.384 224.667 213.984 228.8V215H187.184ZM360.113 265C360.113 279.4 365.313 291.667 375.713 301.8C386.247 311.933 398.847 317 413.513 317C428.18 317 440.713 311.933 451.113 301.8C461.647 291.667 466.913 279.4 466.913 265C466.913 250.6 461.647 238.333 451.113 228.2C440.713 218.067 428.18 213 413.513 213C398.847 213 386.247 218.067 375.713 228.2C365.313 238.333 360.113 250.6 360.113 265ZM387.313 265C387.313 257.8 389.847 251.667 394.913 246.6C400.113 241.533 406.313 239 413.513 239C420.713 239 426.847 241.533 431.913 246.6C437.113 251.667 439.713 257.8 439.713 265C439.713 272.2 437.113 278.333 431.913 283.4C426.847 288.467 420.713 291 413.513 291C406.313 291 400.113 288.467 394.913 283.4C389.847 278.333 387.313 272.2 387.313 265Z" fill="white"/>
</svg>
